<svg  viewBox="0 0 53 53" fill="none" xmlns="http://www.w3.org/2000/svg">
<path d="M33.253 3C32.322 3 31.489 3.784 31.489 4.764V7.998H22.375C21.395 7.998 20.611 8.782 20.611 9.762C20.611 10.742 21.395 11.526 22.375 11.526H44.719C45.699 11.526 46.483 10.742 46.483 9.762C46.483 8.782 45.699 7.998 44.719 7.998H35.017V4.764C35.017 3.784 34.233 3 33.253 3ZM18.014 10.693C18.014 8.978 16.642 7.606 14.927 7.606H7.087C5.372 7.606 4 8.978 4 10.693V40.191C4 41.906 5.372 43.278 7.087 43.278H14.927C16.642 43.278 18.014 41.906 18.014 40.191V10.693ZM14.486 11.134V23.531H7.528V11.134H14.486ZM41.975 14.025C42.122 13.094 41.534 12.163 40.554 11.967C39.623 11.82 38.692 12.408 38.496 13.388C38.202 14.907 37.271 17.259 36.389 18.778H30.705C29.774 17.259 28.843 14.907 28.598 13.388C28.402 12.408 27.471 11.82 26.54 11.967C25.56 12.163 24.923 13.094 25.119 14.025C25.364 15.397 26.001 17.161 26.736 18.778H20.611C19.631 18.778 18.847 19.562 18.847 20.542C18.847 21.522 19.631 22.306 20.611 22.306H46.581C47.561 22.306 48.345 21.522 48.345 20.542C48.345 19.562 47.561 18.778 46.581 18.778H40.358C41.093 17.161 41.73 15.397 41.975 14.025ZM40.064 48.57C41.779 48.57 43.151 47.198 43.151 45.483V29.607C43.151 27.892 41.779 26.52 40.064 26.52H26.197C24.482 26.52 23.11 27.892 23.11 29.607V45.483C23.11 47.198 24.482 48.57 26.197 48.57H40.064ZM7.528 39.75V27.059H14.486V39.75H7.528ZM39.623 30.048V35.34H26.638V30.048H39.623ZM26.638 45.042V38.868H39.623V45.042H26.638Z" />
</svg>
