<svg  viewBox="0 0 53 53" fill="none" xmlns="http://www.w3.org/2000/svg">
<path d="M23.64 19.092V6.94C23.64 5.274 22.317 4 20.7 4H8.94C7.323 4 6 5.274 6 6.94V45.895C6 46.875 6.784 47.659 7.764 47.659C8.744 47.659 9.528 46.875 9.528 45.895V22.032H20.7C22.317 22.032 23.64 20.709 23.64 19.092ZM45.004 47.659C45.984 47.659 46.768 46.875 46.768 45.895V6.94C46.768 5.274 45.445 4 43.828 4H32.068C30.451 4 29.128 5.274 29.128 6.94V19.092C29.128 20.709 30.451 22.032 32.068 22.032H43.24V45.895C43.24 46.875 44.024 47.659 45.004 47.659ZM20.112 7.528V11.105H9.528V7.528H20.112ZM43.24 7.528V11.105H32.656V7.528H43.24ZM9.528 18.504V14.633H20.112V18.504H9.528ZM32.656 18.504V14.633H43.24V18.504H32.656ZM30.353 45.748C31.333 45.748 32.117 44.964 32.117 43.984V31.097H38.193C39.173 31.097 39.957 30.264 39.957 29.333C39.957 28.353 39.173 27.569 38.193 27.569H32.117V24.384C32.117 23.404 31.333 22.62 30.353 22.62C29.373 22.62 28.589 23.404 28.589 24.384V27.569H15.898C14.918 27.569 14.134 28.353 14.134 29.333C14.134 30.264 14.918 31.097 15.898 31.097H28.54C26.972 32.812 25.11 34.429 23.003 35.801C20.749 37.32 18.25 38.594 15.506 39.623C14.575 39.966 14.134 40.995 14.477 41.926C14.771 42.612 15.408 43.053 16.143 43.053C16.339 43.053 16.535 43.004 16.731 42.906C19.72 41.828 22.464 40.407 24.963 38.741C26.237 37.908 27.462 36.977 28.589 35.997V43.984C28.589 44.964 29.373 45.748 30.353 45.748Z" fill="#FF543D"/>
</svg>
