<svg  viewBox="0 0 53 53" fill="none" xmlns="http://www.w3.org/2000/svg">
<path d="M23.64 17.377V7.136C23.64 5.372 22.268 4 20.504 4H9.136C7.421 4 6 5.372 6 7.136V45.895C6 46.875 6.784 47.659 7.764 47.659C8.744 47.659 9.528 46.875 9.528 45.895V20.513H20.504C22.268 20.513 23.64 19.092 23.64 17.377ZM43.632 4H32.264C30.5 4 29.128 5.372 29.128 7.136V17.377C29.128 19.092 30.5 20.513 32.264 20.513H43.24V45.895C43.24 46.875 44.024 47.659 45.004 47.659C45.984 47.659 46.768 46.875 46.768 45.895V7.136C46.768 5.372 45.347 4 43.632 4ZM20.112 7.528V10.223H9.528V7.528H20.112ZM43.24 7.528V10.223H32.656V7.528H43.24ZM9.528 16.985V13.751H20.112V16.985H9.528ZM32.656 16.985V13.751H43.24V16.985H32.656ZM38.291 31.391H33.195V26.932H37.262C38.242 26.932 39.026 26.148 39.026 25.168C39.026 24.188 38.242 23.404 37.262 23.404H15.408C14.428 23.404 13.644 24.188 13.644 25.168C13.644 26.148 14.428 26.932 15.408 26.932H19.916V31.391H14.722C13.742 31.391 12.958 32.175 12.958 33.155C12.958 34.135 13.742 34.919 14.722 34.919H19.671C19.181 38.937 17.662 42.122 15.261 44.229C14.526 44.866 14.428 45.944 15.065 46.679C15.408 47.12 15.898 47.316 16.388 47.316C16.829 47.316 17.221 47.169 17.564 46.875C20.749 44.131 22.66 40.064 23.248 34.919H29.667V45.356C29.667 46.336 30.451 47.12 31.431 47.12C32.411 47.12 33.195 46.336 33.195 45.356V34.919H38.291C39.271 34.919 40.055 34.135 40.055 33.155C40.055 32.175 39.271 31.391 38.291 31.391ZM23.444 31.391V26.932H29.667V31.391H23.444Z" fill="#41942D"/>
</svg>
