<svg viewBox="0 0 53 53" fill="none" xmlns="http://www.w3.org/2000/svg">
<path d="M44.857 48.835C45.837 48.835 46.621 48.051 46.621 47.071V6.94C46.621 5.323 45.298 4 43.681 4H31.333C29.667 4 28.393 5.323 28.393 6.94V22.179C28.393 33.988 26.531 40.113 21.386 45.65C21.092 45.993 20.896 46.385 20.896 46.875C20.896 47.855 21.68 48.639 22.66 48.639C23.199 48.639 23.64 48.394 23.983 48.051C28.197 43.494 30.5 38.496 31.431 31.195H43.093V47.071C43.093 48.051 43.877 48.835 44.857 48.835ZM19.573 38.202C21.239 38.202 22.513 36.879 22.513 35.262V9.439C22.513 7.822 21.239 6.499 19.573 6.499H8.94C7.323 6.499 6 7.822 6 9.439V35.262C6 36.879 7.323 38.202 8.94 38.202H19.573ZM31.921 15.809V7.528H43.093V15.809H31.921ZM9.528 20.072V10.027H18.985V20.072H9.528ZM31.725 27.667C31.872 25.952 31.921 24.139 31.921 22.179V19.337H43.093V27.667H31.725ZM9.528 34.674V23.6H18.985V34.674H9.528Z" />
</svg>
